<svg width="152" height="106" viewBox="0 0 152 106" fill="none" xmlns="http://www.w3.org/2000/svg">
<rect width="152" height="106" fill="#E5E5E5"/>
<rect width="679" height="512" transform="translate(-263 -183)" fill="white"/>
<g filter="url(#filter0_d_0_1)">
<rect x="-219" y="-57" width="590" height="300" rx="4" fill="white"/>
<rect x="-219.5" y="-57.5" width="591" height="301" rx="4.5" stroke="#969696" stroke-opacity="0.3"/>
<g clip-path="url(#clip0_0_1)">
<path d="M-3.00992 132V-26H154.987V132H-3.00992ZM57.4266 29.248C55.5745 28.819 53.6112 28.2418 51.5923 27.9085C37.1731 25.5319 22.9175 35.9086 20.8461 50.3317C20.6517 51.7052 20.0929 52.1836 18.8859 52.591C5.98242 56.9121 -1.75044 70.7457 1.30874 83.9126C4.27222 96.6721 15.0426 105.32 28.1653 105.336C60.0639 105.367 91.9625 105.367 123.861 105.336C125.251 105.36 126.64 105.266 128.013 105.055C138.098 103.286 145.439 97.8049 149.292 88.3016C153.224 78.5946 151.625 69.4525 145.254 61.1714C144.575 60.2918 144.47 59.5572 144.757 58.514C146.609 51.7237 147.066 44.81 145.51 37.9087C141.222 18.8743 129.634 6.36174 110.683 1.96659C91.7321 -2.42856 75.9237 3.91107 63.7858 19.041C61.31 22.1306 59.5536 25.8004 57.4359 29.248H57.4266Z" fill="white"/>
<path d="M57.4366 29.248C59.5542 25.8004 61.3107 22.1306 63.7895 19.041C75.9275 3.91725 91.7451 -2.42856 110.687 1.96659C129.628 6.36174 141.226 18.8743 145.514 37.9087C147.057 44.81 146.628 51.7114 144.761 58.514C144.473 59.5572 144.578 60.2918 145.258 61.1715C151.629 69.4525 153.228 78.5946 149.295 88.3016C145.443 97.8049 138.102 103.286 128.017 105.055C126.643 105.266 125.254 105.36 123.865 105.336C91.9663 105.348 60.0677 105.348 28.1691 105.336C15.0526 105.32 4.28215 96.6721 1.31249 83.9126C-1.74669 70.7457 5.98613 56.9214 18.8896 52.591C20.0966 52.1867 20.6554 51.7052 20.8499 50.3317C22.9212 35.9086 37.1768 25.5319 51.596 27.9085C53.6211 28.2418 55.5967 28.819 57.4366 29.248ZM75.8256 97.9345C91.7728 97.9345 107.72 97.9932 123.674 97.9129C132.388 97.8697 138.735 93.7925 142.325 85.8756C145.684 78.4527 143.949 70.221 137.979 64.1592C136.435 62.5851 136.188 60.9492 136.886 58.9615C139.448 51.6682 139.825 44.2205 137.688 36.816C133.53 22.4207 124.174 12.8773 109.619 9.28464C94.9771 5.67037 82.2959 9.92046 71.8959 20.8065C67.9662 24.9208 65.299 29.819 63.5858 35.245C62.9159 37.3685 61.6503 38.5321 59.9308 38.4025C58.9584 38.3253 57.9613 37.8685 57.0816 37.3901C44.1688 30.3962 28.1907 39.5198 27.8758 54.0942C27.8048 57.3134 27.0176 58.2455 23.8628 58.8659C13.1356 60.9708 6.1127 71.8291 8.58844 82.4496C10.7493 91.7091 18.5933 97.916 28.3049 97.9376C44.1348 97.9623 59.9802 97.9345 75.8256 97.9345Z" fill="#555555"/>
<path d="M75.8255 97.9345C59.9802 97.9345 44.1348 97.9623 28.2863 97.9345C18.5747 97.9129 10.7277 91.6967 8.5699 82.4466C6.10033 71.8167 13.117 60.9678 23.8442 58.8628C27.0083 58.2455 27.7955 57.3195 27.8572 54.0911C28.1659 39.5167 44.1502 30.3931 57.063 37.387C57.9428 37.8654 58.9398 38.313 59.9122 38.3994C61.6317 38.529 62.8974 37.3654 63.5672 35.2419C65.2805 29.8159 67.9476 24.9177 71.8773 20.8034C82.2773 9.91737 94.9585 5.67963 109.6 9.28155C124.155 12.8742 133.512 22.4176 137.67 36.813C139.806 44.2205 139.429 51.6651 136.867 58.9585C136.169 60.9462 136.41 62.582 137.96 64.1561C143.93 70.2179 145.677 78.4496 142.306 85.8726C138.716 93.8048 132.369 97.8821 123.655 97.9098C107.72 97.9932 91.7605 97.9345 75.8255 97.9345ZM86.2379 60.0943C85.4538 59.2085 84.7716 58.443 84.0986 57.6745C80.2955 53.3534 76.4944 49.0251 72.6954 44.6897C71.0315 42.8038 68.7811 42.5507 67.1388 44.0322C65.4966 45.5138 65.4595 47.6311 67.0894 49.5107C69.1762 51.9213 71.2908 54.3071 73.393 56.7053L80.6474 64.9863C80.0609 65.511 79.5731 65.9555 79.0761 66.3938C74.3963 70.4957 69.7041 74.5853 65.0459 78.7088C63.3203 80.2521 63.1628 82.4651 64.5643 84.0608C65.9658 85.6565 68.1298 85.7707 69.9264 84.2676C70.7135 83.6071 71.4699 82.9157 72.2478 82.2367L85.5433 70.5791C86.1144 71.218 86.6299 71.7797 87.1331 72.3538C91.069 76.8384 94.974 81.3509 98.9654 85.7831C99.6791 86.5698 100.586 87.1571 101.596 87.4868C103.068 87.9282 104.611 87.067 105.383 85.7399C106.229 84.2861 106.084 82.7367 104.852 81.3262C100.327 76.1378 95.7735 70.968 91.1431 65.6901C91.6339 65.2364 92.0691 64.8166 92.5291 64.4184C97.1595 60.3443 101.833 56.3041 106.42 52.1713C107.199 51.4503 107.763 50.5286 108.05 49.5077C108.449 48.0169 107.544 46.5107 106.198 45.7792C104.723 44.9829 103.25 45.1773 101.799 46.4459C96.6533 50.9521 91.5166 55.4676 86.2379 60.0943Z" fill="white"/>
<path d="M86.2379 60.0943C91.5166 55.4645 96.6533 50.9521 101.805 46.4551C103.256 45.1866 104.729 44.9921 106.204 45.7884C107.553 46.5199 108.458 48.0261 108.057 49.5169C107.769 50.5378 107.205 51.4596 106.427 52.1805C101.843 56.3133 97.1658 60.3535 92.5353 64.4277C92.0784 64.8258 91.6401 65.2456 91.1493 65.6993C95.7797 70.9679 100.321 76.1378 104.846 81.3261C106.081 82.7367 106.223 84.2861 105.377 85.7398C104.605 87.067 103.062 87.9281 101.589 87.4868C100.579 87.157 99.673 86.5698 98.9593 85.783C94.9678 81.3508 91.0628 76.8322 87.1269 72.3538C86.6238 71.7797 86.1082 71.2179 85.5371 70.579L72.2416 82.2367C71.4699 82.9157 70.6981 83.6071 69.9202 84.2676C68.1236 85.7707 65.9843 85.6812 64.5582 84.0608C63.132 82.4404 63.3234 80.2366 65.0397 78.7088C69.6979 74.5853 74.3901 70.4957 79.07 66.3938C79.567 65.9555 80.0547 65.511 80.6412 64.9863L73.3838 56.7053C71.2816 54.3071 69.167 51.9213 67.0802 49.5107C65.4503 47.6311 65.4842 45.5199 67.1296 44.0322C68.7749 42.5445 71.0253 42.7976 72.6861 44.6896C76.4913 49.0107 80.2924 53.339 84.0894 57.6745C84.7716 58.443 85.4538 59.2084 86.2379 60.0943Z" fill="#555555"/>
</g>
</g>
<defs>
<filter id="filter0_d_0_1" x="-222" y="-58" width="596" height="306" filterUnits="userSpaceOnUse" color-interpolation-filters="sRGB">
<feFlood flood-opacity="0" result="BackgroundImageFix"/>
<feColorMatrix in="SourceAlpha" type="matrix" values="0 0 0 0 0 0 0 0 0 0 0 0 0 0 0 0 0 0 127 0" result="hardAlpha"/>
<feOffset dy="2"/>
<feGaussianBlur stdDeviation="1"/>
<feColorMatrix type="matrix" values="0 0 0 0 0 0 0 0 0 0 0 0 0 0 0 0 0 0 0.25 0"/>
<feBlend mode="normal" in2="BackgroundImageFix" result="effect1_dropShadow_0_1"/>
<feBlend mode="normal" in="SourceGraphic" in2="effect1_dropShadow_0_1" result="shape"/>
</filter>
<clipPath id="clip0_0_1">
<rect width="158" height="158" fill="white" transform="translate(-3 -26)"/>
</clipPath>
</defs>
</svg>
